<svg xmlns="http://www.w3.org/2000/svg"
     viewBox="0 0 8000 8000">

  <rect x="0" y="0" width="8000" height="8000" fill="#B8FF00"/>

  <g transform="translate(0,8000) scale(1,-1)"
     fill="#000000" stroke="none">

    <path d="M5315 5375 c-202 -29 -430 -86 -660 -165 -138 -48 -325 -126 -340
-142 -7 -8 -4 -9 10 -4 119 43 411 119 570 150 418 80 731 74 885 -17 246
-144 213 -439 -93 -816 -181 -224 -567 -563 -892 -783 -150 -101 -161 -112
-60 -59 140 74 376 219 510 313 500 351 852 773 895 1075 30 217 -93 377 -341
439 -90 22 -355 27 -484 9z"/>

    <path d="M4010 5353 c-432 -70 -814 -345 -1007 -727 -99 -197 -146 -397 -146
-621 0 -164 19 -286 67 -430 19 -55 32 -102 30 -104 -2 -2 -63 -6 -135 -9
-153 -6 -220 6 -278 48 -54 40 -73 80 -73 154 1 72 20 135 72 234 22 39 36 72
32 72 -8 0 -78 -80 -129 -146 -77 -100 -133 -237 -133 -324 0 -53 44 -133 90
-165 156 -108 473 -91 895 50 160 53 440 166 458 184 6 6 -5 32 -33 73 -85
127 -156 308 -180 458 -26 164 -6 374 51 536 116 334 397 598 722 679 92 23
97 28 42 36 -52 8 -301 9 -345 2z"/>

    <path d="M5014 5065 c-167 -25 -361 -83 -539 -162 -104 -46 -150 -71 -142 -79
2 -3 17 0 33 6 16 6 90 27 164 45 338 85 596 95 730 28 94 -48 120 -128 81
-252 -93 -300 -651 -751 -1381 -1117 -587 -294 -1116 -454 -1510 -457 -217 -2
-318 24 -405 104 -65 60 -88 124 -83 224 8 122 56 240 166 403 111 165 324
399 547 601 l80 73 -91 -61 c-153 -100 -291 -216 -455 -380 -215 -216 -332
-380 -401 -561 -29 -77 -32 -96 -32 -200 -1 -103 2 -120 23 -165 122 -248 527
-301 1148 -150 544 132 1238 449 1786 815 235 157 374 267 536 425 247 240
361 425 363 585 1 140 -85 237 -242 274 -79 19 -249 19 -376 1z"/>

    <path d="M4330 4736 c0 -30 -64 -294 -74 -304 -7 -7 -77 -26 -155 -42 -79 -16
-146 -31 -148 -34 -2 -2 20 -9 49 -15 165 -34 240 -54 252 -67 12 -11 46 -136
71 -262 4 -18 9 -31 12 -29 2 3 17 64 33 135 16 72 33 140 39 150 8 15 41 26
143 47 73 16 142 31 153 35 20 7 20 7 0 13 -11 3 -78 17 -150 32 -71 15 -135
32 -142 38 -6 7 -26 77 -43 157 -29 129 -40 170 -40 146z"/>

    <path d="M5327 3485 c-297 -282 -736 -366 -1104 -213 l-72 30 -93 -50 c-117
-64 -309 -148 -507 -223 -85 -32 -156 -61 -159 -64 -7 -7 16 -24 106 -81 100
-64 235 -120 372 -157 108 -29 126 -30 310 -31 209 -1 267 7 430 61 103 35
271 122 354 185 148 112 290 275 369 425 35 66 81 183 75 189 -2 1 -38 -31
-81 -71z"/>

  </g>
</svg>
